<svg xmlns="http://www.w3.org/2000/svg"
     viewBox="0 0 64 64"
     stroke="currentColor" stroke-width="4" fill="none"
     stroke-linecap="round" stroke-linejoin="round">

  <!-- chip body -->
  <rect x="14" y="14" width="36" height="36" rx="6" ry="6"/>

  <!-- solid die -->
  <rect x="26" y="26" width="12" height="12" fill="currentColor" stroke="none"/>

  <!-- pins: 4 per side -->
  <!-- top -->
  <line x1="20" y1="8"  x2="20" y2="14"/>
  <line x1="28" y1="8"  x2="28" y2="14"/>
  <line x1="36" y1="8"  x2="36" y2="14"/>
  <line x1="44" y1="8"  x2="44" y2="14"/>
  <!-- bottom -->
  <line x1="20" y1="56" x2="20" y2="50"/>
  <line x1="28" y1="56" x2="28" y2="50"/>
  <line x1="36" y1="56" x2="36" y2="50"/>
  <line x1="44" y1="56" x2="44" y2="50"/>
  <!-- left -->
  <line x1="8" y1="20"  x2="14" y2="20"/>
  <line x1="8" y1="28"  x2="14" y2="28"/>
  <line x1="8" y1="36"  x2="14" y2="36"/>
  <line x1="8" y1="44"  x2="14" y2="44"/>
  <!-- right -->
  <line x1="56" y1="20" x2="50" y2="20"/>
  <line x1="56" y1="28" x2="50" y2="28"/>
  <line x1="56" y1="36" x2="50" y2="36"/>
  <line x1="56" y1="44" x2="50" y2="44"/>

</svg>